# xmcd
#
# Track frame offsets:
#	150
#	7836
#	17046
#	23031
#	30790
#	40825
#	48489
#	57549
#	63598
#	72415
#
# Disc length: 1078 seconds
#
# Revision: 0
# Processed by: cddbd v1.4b42PL1 Copyright (c) Steve Scherf et al.
# Submitted via: EZCDDA 4.3.3.2
#
DISCID=7904340a
DTITLE=Buck Owens - Good Old Country
DYEAR=1900
DGENRE=
TTITLE0=Please Don't Take Her From Me
TTITLE1=It Don't Show On Me
TTITLE2=Three Dimensional Love
TTITLE3=That Ain't Right
TTITLE4=House Down The Block
TTITLE5=Down On The Corner of Love
TTITLE6=Why Don't Mommy Stay With Daddy and Me
TTITLE7=Blue Love
TTITLE8=After the Dance
TTITLE9=You're For Me
EXTD=
EXTT0=
EXTT1=
EXTT2=
EXTT3=
EXTT4=
EXTT5=
EXTT6=
EXTT7=
EXTT8=
EXTT9=
PLAYORDER=
